<svg width="29" height="28" viewBox="0 0 29 28" fill="none" xmlns="http://www.w3.org/2000/svg">
<path fill-rule="evenodd" clip-rule="evenodd" d="M26.2233 13.9985C26.2233 20.442 21.0001 25.6651 14.5566 25.6651C8.11312 25.6651 2.88995 20.442 2.88995 13.9985C2.88995 7.55495 8.11312 2.33179 14.5566 2.33179C21.0001 2.33179 26.2233 7.55495 26.2233 13.9985ZM14.5566 23.3318C17.032 23.3318 19.4059 22.3485 21.1563 20.5981C22.9066 18.8478 23.89 16.4738 23.89 13.9985C23.89 11.5231 22.9066 9.14913 21.1563 7.39879C19.4059 5.64845 17.032 4.66512 14.5566 4.66512C12.0813 4.66512 9.7073 5.64845 7.95696 7.39879C6.20662 9.14913 5.22329 11.5231 5.22329 13.9985C5.22329 16.4738 6.20662 18.8478 7.95696 20.5981C9.7073 22.3485 12.0813 23.3318 14.5566 23.3318Z" fill="#666666"/>
<path fill-rule="evenodd" clip-rule="evenodd" d="M14.5566 12.8318C14.866 12.8318 15.1628 12.9547 15.3816 13.1735C15.6004 13.3923 15.7233 13.689 15.7233 13.9985V18.6651C15.7233 18.9745 15.6004 19.2713 15.3816 19.4901C15.1628 19.7089 14.866 19.8318 14.5566 19.8318C14.2472 19.8318 13.9505 19.7089 13.7317 19.4901C13.5129 19.2713 13.39 18.9745 13.39 18.6651V13.9985C13.39 13.689 13.5129 13.3923 13.7317 13.1735C13.9505 12.9547 14.2472 12.8318 14.5566 12.8318Z" fill="#666666"/>
<path d="M15.7233 10.4985C15.7233 10.8079 15.6004 11.1046 15.3816 11.3234C15.1628 11.5422 14.866 11.6651 14.5566 11.6651C14.2472 11.6651 13.9505 11.5422 13.7317 11.3234C13.5129 11.1046 13.39 10.8079 13.39 10.4985C13.39 10.189 13.5129 9.89229 13.7317 9.6735C13.9505 9.4547 14.2472 9.33179 14.5566 9.33179C14.866 9.33179 15.1628 9.4547 15.3816 9.6735C15.6004 9.89229 15.7233 10.189 15.7233 10.4985Z" fill="#666666"/>
</svg>
