<svg width="29" height="28" viewBox="0 0 29 28" fill="none" xmlns="http://www.w3.org/2000/svg">
<path d="M11.0565 25.6672V19.8338C11.0565 18.7337 11.0565 18.1842 10.7147 17.8423C10.3728 17.5005 9.82333 17.5005 8.72317 17.5005H8.13983C6.489 17.5005 5.66417 17.5005 5.15317 18.0138C4.63983 18.526 4.63983 19.3508 4.63983 21.0005V25.6672H11.0565ZM11.0565 25.6672H18.0565M11.0565 25.6672V18.6672C11.0565 17.0175 11.0565 16.1927 11.5698 15.6805C12.0808 15.1672 12.9057 15.1672 14.5565 15.1672C16.2073 15.1672 17.031 15.1672 17.5432 15.6805C18.0565 16.1927 18.0565 17.0175 18.0565 18.6672V25.6672M18.0565 25.6672H24.4732V23.3338C24.4732 21.6842 24.4732 20.8593 23.9598 20.3472C23.4477 19.8338 22.6228 19.8338 20.9732 19.8338H20.3898C19.2897 19.8338 18.7402 19.8338 18.3983 20.1757C18.0565 20.5175 18.0565 21.067 18.0565 22.1672V25.6672ZM2.88983 25.6672H26.2232M15.3627 3.00817L16.184 4.66484C16.2537 4.78896 16.3487 4.89704 16.4628 4.98207C16.577 5.06709 16.7078 5.12714 16.8467 5.15834L18.3353 5.40684C19.2873 5.56667 19.5113 6.26317 18.8253 6.95034L17.668 8.117C17.5666 8.23185 17.4921 8.36795 17.4501 8.51533C17.4081 8.6627 17.3997 8.8176 17.4253 8.96867L17.7567 10.413C18.018 11.5563 17.416 11.9985 16.4127 11.4012L15.0173 10.5682C14.8746 10.4941 14.7161 10.4555 14.5553 10.4555C14.3945 10.4555 14.2361 10.4941 14.0933 10.5682L12.698 11.4012C11.6993 11.9985 11.0927 11.5517 11.354 10.413L11.6853 8.96867C11.711 8.8176 11.7025 8.6627 11.6605 8.51533C11.6186 8.36795 11.5441 8.23185 11.4427 8.117L10.2865 6.95034C9.60517 6.26317 9.8245 5.56667 10.7765 5.40684L12.264 5.15834C12.4021 5.12641 12.5321 5.0659 12.6454 4.9807C12.7587 4.8955 12.853 4.78751 12.922 4.66367L13.7433 3.007C14.1913 2.10867 14.9193 2.10867 15.3627 3.007" stroke="#666666" stroke-width="2" stroke-linecap="round" stroke-linejoin="round"/>
</svg>
