<svg width="91" height="16" viewBox="0 0 91 16" fill="none" xmlns="http://www.w3.org/2000/svg">
<path d="M85.2951 5.61997C85.5217 5.08664 85.7484 4.5333 85.9751 3.95997C86.2017 3.3733 86.4217 2.79997 86.6351 2.23997C86.8484 1.67997 87.0351 1.1733 87.1951 0.719971H89.9751L90.0551 0.939971C89.8551 1.3933 89.6151 1.8933 89.3351 2.43997C89.0551 2.9733 88.7551 3.5133 88.4351 4.05997C88.1284 4.60664 87.8151 5.12664 87.4951 5.61997H85.2951Z" fill="#B7EAA6" fill-opacity="0.994753"/>
<path d="M78.6126 5.21997C82.8126 5.21997 83.9326 6.99997 83.3726 10.24L82.5126 15H78.9526L79.6926 10.86C79.9726 9.13997 79.6726 8.11997 77.1126 8.11997C75.0326 8.11997 73.4926 8.81997 73.0526 10.78L72.3126 15H68.7326L70.3926 5.47997H73.6526L73.3326 7.29997C74.5526 5.89997 76.3526 5.21997 78.6126 5.21997Z" fill="#B7EAA6" fill-opacity="0.994753"/>
<path d="M66.2315 4.29994C65.0915 4.29994 64.5115 3.85994 64.5115 3.01994C64.5115 1.71994 65.3715 0.939941 66.8315 0.939941C67.9515 0.939941 68.5315 1.35994 68.5315 2.19994C68.5315 3.51994 67.6715 4.29994 66.2315 4.29994ZM66.0915 14.9999H62.5115L64.1915 5.47994H67.7715L66.0915 14.9999Z" fill="#B7EAA6" fill-opacity="0.994753"/>
<path d="M57.3066 6.75999L58.1866 1.73999H62.0666L59.7466 15H55.8666L56.7266 10.12H48.9066L48.0466 15H44.1666L46.5066 1.73999H50.3666L49.4866 6.75999H57.3066Z" fill="#B7EAA6" fill-opacity="0.994753"/>
<path d="M39.4554 1.73999H44.7354L38.2954 6.85999L42.5554 15H38.1354L35.2554 9.25999L31.9554 11.9L31.4154 15H27.5354L29.8754 1.73999H33.7354L32.7354 7.39999L39.4554 1.73999Z" fill="#B7EAA6" fill-opacity="0.994753"/>
<path d="M18.2179 15.26C12.0779 15.26 11.2979 13.32 11.7179 10.8L11.9179 9.68001C12.3179 7.28001 13.5379 5.24001 19.9779 5.22001C25.9579 5.20001 26.9179 7.06001 26.4779 9.72001L26.2779 10.82C25.8779 13.28 24.5379 15.26 18.2179 15.26ZM18.7179 12.42C21.9579 12.42 22.3979 11.68 22.5379 10.76L22.7179 9.72001C22.8779 8.72001 22.6179 8.06001 19.4779 8.06001C16.5579 8.06001 15.8379 8.68001 15.6579 9.72001L15.4779 10.76C15.3179 11.74 15.6179 12.42 18.7179 12.42Z" fill="#B7EAA6" fill-opacity="0.994753"/>
<path d="M10.888 8.30004H5.40804L5.08804 10.08C4.86804 11.34 4.98804 12.04 6.68804 12.04H10.408L9.90804 15H5.34804C2.34804 15 0.908042 13.64 1.44804 10.58L1.84804 8.30004H0.368042L0.868042 5.48004H2.34804L2.76804 3.04004H6.32804L5.90804 5.48004H11.388L10.888 8.30004Z" fill="#B7EAA6" fill-opacity="0.994753"/>
</svg>
